Disc 6 Of 9

23.South Atlantic raiders                : 720x554 29m 35s
24.South Atlantic Raiders Pt 2           : 720x540 28m 12s
25.GLC                                   : 720x438 32m 43s 
26.Oxford                                : 720x556 35m 13s
27.Spaghetti Hoops                       : 720x554 31m 48s

Note. Video/Audio Bitrate varies slightly in all 5 clips

Format                                   : MPEG-4
File size                                : 1.13 GiB
Duration                                 : 2h 37mn 33s
Overall bit rate mode                    : Variable
Overall bit rate                         : 1 081 Kbps

Video
Format settings, CABAC                   : Yes
Format settings, ReFrames                : 1 frame
Codec ID                                 : avc1
Duration                                 : 2h 37mn 33s
Bit rate mode                            : Variable
Bit rate                                 : 998 Kbps
Frame rate mode                          : Constant
Frame rate                               : 25.000 fps
Bit depth                                : 8 bits
Scan type                                : Progressive
Bits/(Pixel*Frame)                       : 0.100
Stream size                              : 1.050 GiB (93%)
Writing library                          : x264 core

Audio
Format                                   : AAC
Duration                                 : 2h 37mn 33s
Bit rate mode                            : Variable
Bit rate                                 : 76.8 Kbps
Maximum bit rate                         : 89.2 Kbps
Channel(s)                               : 2 channels
Channel positions                        : Front: L R
Sampling rate                            : 48.0 KHz
Compression mode                         : Lossy
Stream size                              : 80 MiB (7%)
Language                                 : English
Subtitles                                : None

IMDB.  http://www.imdb.com/title/tt0083402/

Screens.  http://bayimg.com/jANOBaaEC

          http://bayimg.com/JaNOCaAEC

          http://bayimg.com/JANOEaAec

          http://bayimg.com/JanofaaeC

          http://bayimg.com/JANoIAaeC
   
Enjoy.